# AST/ASF file generated using VICON BodyLanguage
# -----------------------------------------------
:version 1.10
:name VICON
:units
  mass 1.0
  length 0.45
  angle deg
:documentation
   .ast/.asf automatically generated from VICON data using
   VICON BodyBuilder and BodyLanguage model FoxedUp or BRILLIANT.MOD
:root
   order TX TY TZ RX RY RZ
   axis XYZ
   position 0 0 0  
   orientation 0 0 0 
:bonedata
  begin
     id 1 
     name lhipjoint
     direction 0.692814 -0.645514 0.321437 
     length 2.38754 
     axis 0 0 0  XYZ
  end
  begin
     id 2 
     name lfemur
     direction 0.34202 -0.939693 0  
     length 6.41921  
     axis 0 0 20  XYZ
    dof rx ry rz
    limits (-160.0 20.0)
           (-70.0 70.0)
           (-60.0 70.0)
  end
  begin
     id 3 
     name ltibia
     direction 0.34202 -0.939693 0   
     length 6.98247   
     axis 0 0 20   XYZ
    dof rx
    limits (-10.0 170.0)
  end
  begin
     id 4 
     name lfoot
     direction 0.0947186 -0.260237 0.960888   
     length 1.83034   
     axis -90 7.62852e-016 20   XYZ
    dof rx rz
    limits (-45.0 90.0)
           (-70.0 20.0)
  end
  begin
     id 5 
     name ltoes
     direction 1.53538e-011 -4.21952e-011 1   
     length 0.920499   
     axis -90 7.62852e-016 20   XYZ
    dof rx
    limits (-90.0 20.0)
  end
  begin
     id 6 
     name rhipjoint
     direction -0.631686 -0.693949 0.345555   
     length 2.2209  
     axis 0 0 0  XYZ 
  end
  begin
     id 7 
     name rfemur
     direction -0.34202 -0.939693 0   
     length 6.49542   
     axis 0 0 -20   XYZ
    dof rx ry rz
    limits (-160.0 20.0)
           (-70.0 70.0)
           (-70.0 60.0)
  end
  begin
     id 8 
     name rtibia
     direction -0.34202 -0.939693 0   
     length 7.21712   
     axis 0 0 -20   XYZ
    dof rx
    limits (-10.0 170.0)
 end
 begin
     id 9 
     name rfoot
     direction -0.0825378 -0.226771 0.970444   
     length 1.89724  
     axis -90 -7.62852e-016 -20   XYZ
    dof rx rz
    limits (-45.0 90.0)
           (-20.0 70.0)
  end
  begin
     id 10 
     name rtoes
     direction -1.53515e-011 -4.22016e-011 1   
     length 0.955868   
     axis -90 -7.62852e-016 -20   XYZ
    dof rx
    limits (-90.0 20.0)
  end
  begin
     id 11 
     name lowerback
     direction -0.0104711 0.984802 -0.173368   
     length 1.84931   
     axis 0 0 0   XYZ
    dof rx ry rz
    limits (-20.0 45.0)
           (-30.0 30.0)
           (-30.0 30.0)
  end
  begin
     id 12 
     name upperback
     direction -0.00286433 0.999996 -0.000382853   
     length 1.85768   
     axis 0 0 0   XYZ
    dof rx ry rz
    limits (-20.0 45.0)
           (-30.0 30.0)
           (-30.0 30.0)
  end
  begin
     id 13 
     name thorax
     direction 0.00167534 0.996793 0.0800069   
     length 1.92   
     axis 0 0 0   XYZ
    dof rx ry rz
    limits (-20.0 45.0)
           (-30.0 30.0)
           (-30.0 30.0)
  end
  begin
     id 14 
     name lowerneck
     direction -0.0672491 0.995415 0.068018   
     length 1.58923   
     axis 0 0 0   XYZ
    dof rx ry rz
    limits (-20.0 45.0)
           (-30.0 30.0)
           (-30.0 30.0)
  end
  begin
     id 15 
     name upperneck
     direction 0.0958019 0.982476 -0.159884   
     length 1.60189   
     axis 0 0 0   XYZ
    dof rx ry rz
    limits (-20.0 45.0)
           (-30.0 30.0)
           (-30.0 30.0)
  end
  begin
     id 16
     name head
     direction 0.032989 0.997338 -0.0650226  
     length 1.61681  
     axis 0 0 0   XYZ
    dof rx ry rz
    limits (-20.0 45.0)
           (-30.0 30.0)
           (-30.0 30.0)
  end
  begin
     id 17 
     name lclavicle
     direction 0.954279 0.298875 -0.00496069  
     length 2.99449  
     axis 0 0 0   XYZ
    dof ry rz
    limits (-20.0 10.0)
           (0.0 20.0)
  end
  begin
     id 18 
     name lhumerus
     direction 1 -4.48985e-011 -4.2057e-027   
     length 4.79185   
     axis 180 -30 -90   XYZ
    dof rx ry rz
    limits (-60.0 90.0)
           (-90.0 90.0)
           (-90.0 90.0)
  end
  begin
     id 19
     name lradius
     direction 1 -4.48945e-011 1.15441e-028   
     length 2.65553   
     axis 180 -30 -90   XYZ
    dof rx
    limits (-10.0 170.0)
  end
  begin
     id 20
     name lwrist
     direction 1 -4.4899e-011 4.8894e-028   
     length 1.32777   
     axis -2.56392e-016 90 90   XYZ
    dof ry
    limits (-180.0 0.0)
 end
  begin
     id 21 
     name lhand
     direction 1 -4.48908e-011 9.7788e-028   
     length 0.743904   
     axis -6.23971e-016 90 90   XYZ
    dof rx rz
    limits (-90.0 90.0)
           (-45.0 45.0)
  end
  begin
     id 22 
     name lfingers
     direction 1 -4.49068e-011 1.95576e-027   
     length 0.599754   
     axis -1.24794e-015 90 90   XYZ
    dof rx
    limits (0.0 90.0)
  end
  begin
     id 23
     name lthumb
     direction 0.707107 -6.34883e-011 0.707107   
     length 0.861131   
     axis -90 45 2.85299e-015   XYZ
    dof rx rz
    limits (-45.0 45.0)
           (-45.0 45.0)
  end
  begin
     id 24 
     name rclavicle
     direction -0.957921 0.286916 0.00811568   
     length 3.06817  
     axis 0 0 0   XYZ 
    dof ry rz
    limits (-10.0 20.0)
           (-20.0 0.0)
  end
  begin
     id 25 
     name rhumerus
     direction -1 -4.48971e-011 -3.07942e-027  
     length 4.77254   
     axis 180 30 90   XYZ
    dof rx ry rz
    limits (-90.0 60.0)
           (-90.0 90.0)
           (-90.0 90.0)
  end
  begin
     id 26 
     name rradius
     direction -1 -4.48957e-011 -9.6815e-028   
     length 2.75995   
     axis 180 30 90   XYZ
    dof rx
    limits (-10.0 170.0)
  end
  begin
     id 27 
     name rwrist
     direction -1 -4.48979e-011 4.8894e-028   
     length 1.37997   
     axis -2.56392e-016 -90 -90   XYZ
    dof ry
    limits (-180.0 0.0)
  end
  begin
     id 28
     name rhand
     direction -1 -4.48906e-011 9.7788e-028   
     length 0.701619   
     axis -6.23971e-016 -90 -90   XYZ
    dof rx rz
    limits (-90.0 90.0)
           (-45.0 45.0)
  end
  begin
     id 29
     name rfingers
     direction -1 -4.49018e-011 1.95576e-027   
     length 0.565663   
     axis -1.24794e-015 -90 -90   XYZ
    dof rx
    limits (0.0 90.0)
  end
  begin
     id 30
     name rthumb
     direction -0.707107 -6.34881e-011 0.707107   
     length 0.812183   
     axis -90 -45 -2.85299e-015   XYZ
    dof rx rz
    limits (-45.0 45.0)
           (-45.0 45.0)
  end
:hierarchy
  begin
    root lhipjoint rhipjoint lowerback
    lhipjoint lfemur
    lfemur ltibia
    ltibia lfoot
    lfoot ltoes
    rhipjoint rfemur
    rfemur rtibia
    rtibia rfoot
    rfoot rtoes
    lowerback upperback
    upperback thorax
    thorax lowerneck lclavicle rclavicle
    lowerneck upperneck
    upperneck head
    lclavicle lhumerus
    lhumerus lradius
    lradius lwrist
    lwrist lhand lthumb
    lhand lfingers
    rclavicle rhumerus
    rhumerus rradius
    rradius rwrist
    rwrist rhand rthumb
    rhand rfingers
  end

#!OML:ASF F:\VICON\USERDATA\INSTALL\rory3\rory3.ASF
:FULLY-SPECIFIED
:DEGREES
129
root -11.3307 15.8364 7.3462 -179.375 52.6562 -178.847
lowerback 8.19577 -1.02056 -1.00353
upperback -0.854486 -1.43051 0.475127
thorax -5.45394 -0.666092 1.2412
lowerneck -12.0749 -7.37996 -12.0291
upperneck 30.4426 -8.09676 5.13491
head 12.9321 -3.92499 2.91506
rclavicle 2.87694e-014 2.33572e-015
rhumerus -38.5621 -9.72998 -78.9898
rradius 23.0593
rwrist 17.6877
rhand -17.0115 14.6734
rfingers 7.12502
rthumb 9.22422 -15.1048
lclavicle 2.87694e-014 2.33572e-015
lhumerus -36.3735 14.2478 79.1942
lradius 20.8545
lwrist -9.00743
lhand -12.8505 12.6178
lfingers 7.12502
lthumb 13.2373 42.1775
rfemur -20.307 6.49473 23.7091
rtibia 29.2611
rfoot -11.4165 -19.1502
rtoes 6.86092
lfemur 9.09561 -1.61958 -20.7076
ltibia 36.7713
lfoot 9.38425 4.55239
ltoes -8.36223
130
root -11.2266 15.8308 7.30925 -179.215 52.6035 -178.43
lowerback 8.43227 -1.03343 -0.806152
upperback -0.857961 -1.4253 0.532765
thorax -5.59498 -0.666887 1.1952
lowerneck -12.0917 -7.36665 -11.9856
upperneck 30.3899 -8.10324 5.17236
head 12.9128 -3.91925 2.92002
rclavicle -2.00866e-014 8.94531e-015
rhumerus -38.372 -9.80818 -79.0329
rradius 23.2539
rwrist 17.4886
rhand -17.1376 14.8742
rfingers 7.12502
rthumb 9.10255 -14.9094
lclavicle -2.00866e-014 8.94531e-015
lhumerus -36.3445 14.0709 79.2121
lradius 21.1026
lwrist -8.82725
lhand -12.8779 12.5424
lfingers 7.12502
lthumb 13.2109 42.1038
rfemur -19.6969 6.25793 24.254
rtibia 29.2732
rfoot -11.3424 -19.1362
rtoes 5.89878
lfemur 7.81112 -1.44334 -20.2211
ltibia 39.4877
lfoot 10.7458 4.72483
ltoes -8.52928
131
root -11.1254 15.8249 7.27113 -179.054 52.4815 -178.036
lowerback 8.68028 -1.07816 -0.637731
upperback -0.894434 -1.46187 0.635094
thorax -5.77447 -0.686409 1.21856
lowerneck -12.0735 -7.34757 -11.9557
upperneck 30.3294 -8.06176 5.08894
head 12.8737 -3.90924 2.88834
rclavicle -6.91398e-015 1.09332e-015
rhumerus -38.2469 -9.01922 -79.4511
rradius 23.7565
rwrist 16.4527
rhand -17.1524 15.2037
rfingers 7.12502
rthumb 9.08826 -14.5805
lclavicle -6.91398e-015 1.09332e-015
lhumerus -36.345 14.1253 79.2018
lradius 21.2882
lwrist -8.80416
lhand -12.7875 12.5617
lfingers 7.12502
lthumb 13.298 42.1174
rfemur -19.1003 5.79667 24.7838
rtibia 29.2121
rfoot -10.9128 -19.1595
rtoes 3.48674
lfemur 6.47436 -1.34888 -19.7569
ltibia 42.149
lfoot 12.3201 4.96774
ltoes -7.1084
132
root -11.0255 15.8235 7.22761 -178.625 52.4008 -177.338
lowerback 8.85387 -1.08784 -0.190738
upperback -0.919344 -1.41726 0.768531
thorax -5.90767 -0.674715 1.10504
lowerneck -12.0012 -7.35509 -11.9967
upperneck 30.2684 -8.07575 5.10584
head 12.8378 -3.91891 2.90041
rclavicle 6.05936e-014 -8.00108e-015
rhumerus -38.1016 -8.32485 -79.7728
rradius 24.2596
rwrist 15.69
rhand -16.9867 16.1624
rfingers 7.12502
rthumb 9.24816 -13.6148
lclavicle 6.05936e-014 -8.00108e-015
lhumerus -36.3352 14.1479 79.2327
lradius 21.5009
lwrist -8.87232
lhand -12.7006 12.4105
lfingers 7.12502
lthumb 13.3818 41.9607
rfemur -18.5017 5.33592 25.4659
rtibia 29.0909
rfoot -10.7106 -19.0506
rtoes 1.5803
lfemur 5.15301 -1.26871 -19.1488
ltibia 44.715
lfoot 13.9726 5.28782
ltoes -5.1267
133
root -10.9241 15.8242 7.18192 -178.044 52.4083 -176.375
lowerback 8.99383 -1.07194 0.443704
upperback -0.875161 -1.31263 0.931091
thorax -5.95325 -0.639219 0.906029
lowerneck -12.1046 -7.36911 -12.2438
upperneck 30.382 -8.10952 5.39745
head 12.9394 -3.92223 3.05011
rclavicle 9.25312e-014 2.08724e-015
rhumerus -37.8817 -7.93121 -79.9582
rradius 24.646
rwrist 15.0932
rhand -16.9453 16.1433
rfingers 7.12502
rthumb 9.28809 -13.6321
lclavicle 9.25312e-014 2.08724e-015
lhumerus -36.2208 14.0067 79.4058
lradius 21.7695
lwrist -8.67018
lhand -12.7218 12.3917
lfingers 7.12502
lthumb 13.3614 41.9432
rfemur -17.6942 5.17552 26.2504
rtibia 28.8888
rfoot -11.5196 -18.6339
rtoes 3.68162
lfemur 3.92039 -1.15497 -18.3963
ltibia 47.1782
lfoot 15.8114 5.56838
ltoes -3.71915
134
root -10.83 15.8212 7.13686 -177.556 52.4056 -175.511
lowerback 9.20258 -1.05696 1.07671
upperback -0.805069 -1.20898 1.03917
thorax -6.01033 -0.604734 0.651791
lowerneck -12.4702 -7.41489 -12.5709
upperneck 30.7044 -8.19062 5.85668
head 13.204 -3.9294 3.27098
rclavicle 8.34251e-014 4.47266e-016
rhumerus -37.5871 -7.70501 -80.1334
rradius 24.9399
rwrist 14.6756
rhand -17.3581 14.8804
rfingers 7.12502
rthumb 8.88978 -14.9123
lclavicle 8.34251e-014 4.47266e-016
lhumerus -35.9467 13.6823 79.638
lradius 21.9632
lwrist -8.20198
lhand -12.9047 12.4935
lfingers 7.12502
lthumb 13.1851 42.0566
rfemur -16.8644 4.90535 26.9756
rtibia 28.602
rfoot -11.9392 -18.2884
rtoes 4.63914
lfemur 2.64759 -1.06977 -17.744
ltibia 49.5465
lfoot 18.0049 5.98641
ltoes -2.41747
135
root -10.7454 15.8175 7.09283 -176.914 52.3983 -174.53
lowerback 9.41272 -1.04258 1.85553
upperback -0.766902 -1.08706 1.12363
thorax -6.1036 -0.566519 0.288314
lowerneck -12.6154 -7.47379 -12.6726
upperneck 30.8221 -8.30977 6.0978
head 13.3171 -3.95952 3.3636
rclavicle -8.31518e-014 5.91384e-015
rhumerus -37.3327 -7.30497 -80.416
rradius 25.341
rwrist 14.1784
rhand -17.7333 13.8543
rfingers 7.12502
rthumb 8.52767 -15.9535
lclavicle -8.31518e-014 5.91384e-015
lhumerus -35.6368 13.5245 79.713
lradius 22.0429
lwrist -8.01522
lhand -13.1283 12.5447
lfingers 7.12502
lthumb 12.9695 42.1216
rfemur -16.1765 4.43932 27.7749
rtibia 28.2969
rfoot -11.846 -17.9927
rtoes 3.49092
lfemur 1.24307 -0.996457 -17.0614
ltibia 51.8157
lfoot 20.2994 6.76144
ltoes -0.663025
136
root -10.6585 15.8143 7.05331 -175.969 52.4841 -173.266
lowerback 9.56596 -1.02269 2.67987
upperback -0.775938 -0.942429 1.29809
thorax -6.21099 -0.517258 -0.0107601
lowerneck -12.5852 -7.4679 -12.591
upperneck 30.7909 -8.32351 6.08966
head 13.293 -3.95727 3.3446
rclavicle 2.85108e-014 -1.75924e-014
rhumerus -37.1995 -6.60498 -80.748
rradius 25.9135
rwrist 13.4769
rhand -17.8098 13.904
rfingers 7.12502
rthumb 8.4539 -15.9068
lclavicle 2.85108e-014 -1.75924e-014
lhumerus -35.4682 13.4491 79.7617
lradius 22.2526
lwrist -7.81278
lhand -13.111 12.6079
lfingers 7.12502
lthumb 12.9862 42.1838
rfemur -15.5665 4.17223 28.7421
rtibia 28.015
rfoot -12.0739 -17.6209
rtoes 3.38283
lfemur -0.216998 -0.790952 -16.1501
ltibia 53.9755
lfoot 22.2525 7.81183
ltoes 0.264882
137
root -10.5688 15.8098 7.01373 -175.436 52.6032 -172.531
lowerback 9.65543 -0.972027 3.08281
upperback -0.773709 -0.810161 1.4385
thorax -6.26144 -0.461426 -0.108416
lowerneck -12.3902 -7.47227 -12.5103
upperneck 30.5354 -8.33745 5.95665
head 13.1328 -3.97751 3.27405
rclavicle -1.22998e-014 2.22639e-014
rhumerus -36.9313 -6.19254 -80.8932
rradius 26.2109
rwrist 13.083
rhand -17.5044 14.5192
rfingers 7.12502
rthumb 8.74863 -15.2795
lclavicle -1.22998e-014 2.22639e-014
lhumerus -35.3098 13.1914 79.9789
lradius 22.5482
lwrist -7.30558
lhand -13.1521 12.6643
lfingers 7.12502
lthumb 12.9465 42.2426
rfemur -14.993 4.03166 29.3489
rtibia 27.7989
rfoot -12.4498 -17.2887
rtoes 3.57648
lfemur -1.62453 -0.642855 -15.6253
ltibia 55.9857
lfoot 23.6982 9.17962
ltoes 1.20283
138
root -10.4791 15.805 6.97917 -175.057 52.7287 -172.007
lowerback 9.73327 -0.888993 3.3032
upperback -0.778408 -0.659186 1.54679
thorax -6.30873 -0.391658 -0.140278
lowerneck -12.0881 -7.5024 -12.4897
upperneck 30.2538 -8.39784 5.87119
head 12.9519 -4.01995 3.22795
rclavicle -1.49217e-013 -2.21645e-014
rhumerus -36.5744 -6.05387 -80.9635
rradius 26.2754
rwrist 13.004
rhand -17.4185 14.5295
rfingers 7.12502
rthumb 8.83155 -15.2657
lclavicle -1.49217e-013 -2.21645e-014
lhumerus -35.154 13.0055 80.1697
lradius 22.8325
lwrist -6.94584
lhand -13.2213 12.63
lfingers 7.12502
lthumb 12.8799 42.2125
rfemur -14.4972 4.08381 29.8418
rtibia 27.6648
rfoot -12.6648 -17.2471
rtoes 3.12047
lfemur -3.07233 -0.501468 -15.2216
ltibia 57.8773
lfoot 24.7678 10.5781
ltoes 2.43006
